# xmcd CD database file
#
# Track frame offsets:
#	187
#	20587
#	41212
#	60037
#	80812
#	96487
#	113437
#	131737
#	151612
#	171487
#	188212
#	202912
#	221962
#	244462
#	270562
#	289312
#	312262
#
# Disc length: 4251 seconds
#
# Revision: 0
# Processed by: cddbd v1.5PL3 Copyright (c) Steve Scherf et al.
# Submitted via: CDex 1.51
#
DISCID=fb109911
DTITLE=小椋佳 - 大全集 I [CD11)
DYEAR=1991
DGENRE=Folk
TTITLE0=逢うたびに君は
TTITLE1=I Love You
TTITLE2=Whisper
TTITLE3=コンビニエンス・ストア
TTITLE4=駐車場勤めのボブ
TTITLE5=眠りの前のドラマに見とれて
TTITLE6=かなうなら夢のまゝで
TTITLE7=午前零時発
TTITLE8=星座を抱いて
TTITLE9=ギャラクシーバーフェクション
TTITLE10=Foolish Pleasure
TTITLE11=君の街に幸福駅はあるか
TTITLE12=心に空地を
TTITLE13=徒らに、戯らに
TTITLE14=サンゴ樹の葉裏の
TTITLE15=歓びから振り向けば
TTITLE16=サヨナラ
EXTD=YEAR: 1991
EXTT0=
EXTT1=
EXTT2=
EXTT3=
EXTT4=
EXTT5=
EXTT6=
EXTT7=
EXTT8=
EXTT9=
EXTT10=
EXTT11=
EXTT12=
EXTT13=
EXTT14=
EXTT15=
EXTT16=
PLAYORDER=
